<svg xmlns="http://www.w3.org/2000/svg" xmlns:xlink="http://www.w3.org/1999/xlink" width="370" height="139" viewBox="0 0 370 139"><defs><filter id="a" x="0" y="0" width="370" height="139" filterUnits="userSpaceOnUse"><feOffset dy="1" input="SourceAlpha"/><feGaussianBlur stdDeviation="3" result="b"/><feFlood flood-opacity="0.188"/><feComposite operator="in" in2="b"/><feComposite in="SourceGraphic"/></filter></defs><g transform="translate(-107 -1284)"><g transform="matrix(1, 0, 0, 1, 107, 1284)" filter="url(#a)"><path d="M334,0H18A18,18,0,0,0,0,18V79A18,18,0,0,0,18,97H68.765L62,121l38.352-24H334a18,18,0,0,0,18-18V18A18,18,0,0,0,334,0Z" transform="translate(9 8)" fill="#fff"/></g><g transform="translate(11657 429)" opacity="0.13"><g transform="translate(-12481 -227)"><path d="M1278,1099.75c0-15.752-12-19.5-18.75-19.5s-302.5.25-314,.25a17.113,17.113,0,0,0-17.594,17.094c0,8,.063,47.76.063,61.906,0,10.563,9.75,16.813,15.281,16.813,3.313.075.313,0,.313,0" transform="translate(13 10)" fill="none" stroke="#fff" stroke-width="1"/></g></g></g></svg>