<?xml version="1.0" encoding="UTF-8"?>
<svg width="182px" height="92px" viewBox="0 0 182 92" version="1.1" xmlns="http://www.w3.org/2000/svg" xmlns:xlink="http://www.w3.org/1999/xlink">
    <!-- Generator: Sketch 56.3 (81716) - https://sketch.com -->
    <title>Group 4</title>
    <desc>Created with Sketch.</desc>
    <g id="Page-1" stroke="none" stroke-width="1" fill="none" fill-rule="evenodd">
        <g id="Mobile" transform="translate(-15.000000, -583.000000)">
            <g id="banner_sp" transform="translate(0.000000, 484.000000)">
                <g id="Group-5" transform="translate(15.000000, 18.000000)">
                    <g id="Group-4" transform="translate(0.000000, 74.000000)">
                        <path d="M1.15040009,33.9872004 L1.28480009,33.8720004 L3.9920002,33.9680004 L4.1264002,34.1024004 C3.9536002,36.2336005 3.89600019,38.1344006 3.89600019,39.2480006 C3.89600019,40.9376007 4.0688002,42.0704008 4.33760021,43.0496008 C4.54880022,43.7984008 4.79840023,44.3552008 5.22080025,44.3552008 C5.73920027,44.3552008 6.39200029,43.3184008 6.83360031,41.5520007 L8.75360039,43.9712008 C8.88800039,44.1440008 8.88800039,44.2400008 8.81120039,44.4512009 C8.04320036,46.4480009 6.79520031,47.888001 5.24000025,47.888001 C3.9920002,47.888001 2.89760015,47.004801 2.12960012,45.4496009 C1.5344001,44.2400008 1.01600008,42.0896008 1.01600008,39.4784007 C1.01600008,37.9232006 1.05440008,36.0800005 1.15040009,33.9872004 Z M10.3472005,37.3856006 L10.3856005,37.2128006 L12.2288005,35.7344005 L12.4400005,35.6960005 C14.5904006,37.1552006 16.4144007,39.3248006 17.5280007,41.8976008 L17.4704007,42.0704008 L15.0320006,43.5872008 L14.8400006,43.5296008 C13.8032006,40.8800007 12.3440005,38.7872006 10.3472005,37.3856006 Z M22.0528009,40.8800007 L21.8608008,40.8224007 L20.6320008,38.3072006 L20.6896008,38.1344006 C25.950401,35.6960005 29.4448011,34.5440005 31.9216012,34.5440005 C35.4736014,34.5440005 37.8352015,36.6368005 37.8352015,40.2080007 C37.8352015,43.2224008 35.7808014,45.2192009 33.9376013,46.0448009 C32.4208013,46.7360009 30.5008012,47.177601 28.1776011,47.369601 C27.8704011,47.369601 27.7744011,47.369601 27.6592011,47.177601 L26.123201,44.6048009 C28.3888011,44.4896009 30.3088012,44.2016008 32.0176012,43.5104008 C33.9376013,42.7424008 34.6480014,41.6096007 34.6480014,39.8048007 C34.6480014,38.3264006 33.6880013,37.3664006 31.7680012,37.3472006 C29.7328012,37.3280006 26.872001,38.3840006 22.0528009,40.8800007 Z M55.0768021,38.9792006 L55.0960021,38.8064006 L56.0944022,38.0960006 L56.2864022,38.0768006 C56.9968022,38.6720006 57.6688022,39.3440006 58.2448022,40.1120007 L58.2256022,40.3040007 L57.1696022,41.0528007 L56.9776022,41.0528007 C56.3824022,40.2656007 55.8448021,39.6320007 55.0768021,38.9792006 Z M56.8816022,37.7696006 L56.9008022,37.5968006 L57.8800022,36.8864006 L58.0720022,36.8672006 C58.7824023,37.4624006 59.3968023,38.0768006 59.9728023,38.8448006 L59.9536023,39.0368006 L58.9552023,39.7664007 L58.7632023,39.7664007 C58.1680022,38.9792006 57.6496022,38.4224006 56.8816022,37.7696006 Z M43.1152016,38.8448006 L42.9424016,38.7680006 L42.3088016,36.2336005 L42.3856016,36.0800005 C47.7424018,34.7744005 52.024002,33.8912004 57.4384022,32.9120004 L57.6112022,33.0080004 L58.1680022,35.5616005 L58.0336022,35.7344005 C55.9024021,35.8880005 54.0400021,36.2720005 52.868802,37.2320006 C51.083202,38.6720006 50.0848019,40.4192007 50.0848019,42.2240008 C50.0848019,43.7024008 50.8144019,44.4704009 51.947202,44.8160009 C53.003202,45.1424009 54.5392021,45.2576009 56.5360022,45.2384009 L56.6704022,45.3728009 L56.5168022,48.291201 L56.3632022,48.406401 C53.9632021,48.444801 51.870402,48.195201 50.2960019,47.523201 C48.3952019,46.7168009 47.2048018,45.1040009 47.2048018,42.4928008 C47.2048018,40.1312007 48.5296019,38.0960006 49.7776019,37.0784006 C47.8960018,37.5392006 45.8416017,38.0768006 43.1152016,38.8448006 Z M66.0208025,38.7488006 L66.1168025,38.9024006 C66.0400025,39.1328006 65.9632025,39.3440006 65.9632025,39.6128007 C65.9632025,40.0352007 66.3472025,40.0928007 67.4224026,40.0928007 C67.5760026,39.0176006 67.6912026,38.2304006 67.8064026,37.4240006 C66.4624025,37.3472006 65.3296025,37.2512006 64.2928024,37.1168006 L64.1776024,36.9440006 L64.3312024,34.7168005 L64.4848024,34.6016005 C65.6752025,34.7744005 66.8464025,34.8896005 68.1904026,34.9280005 C68.3440026,33.8720004 68.4976026,32.7968004 68.6128026,31.8368004 L68.7856026,31.7408003 L71.4544027,32.0480004 L71.5888027,32.2208004 C71.4736027,33.0272004 71.3200027,33.9488004 71.1472027,34.8896005 C72.0304027,34.8512005 72.8944028,34.7552005 73.7968028,34.6400005 L73.9504028,34.7552005 L74.1040028,37.0208006 L73.9312028,37.1744006 C72.9520028,37.2896006 71.8384027,37.3664006 70.7056027,37.4048006 C70.5520027,38.3072006 70.4176027,39.2096006 70.3024027,40.0544007 C71.5504027,39.9776007 72.8944028,39.8048007 74.2576028,39.5552007 L74.4304028,39.6704007 L74.6800029,41.9168008 L74.5648028,42.0704008 C72.9136028,42.3392008 71.3968027,42.5120008 69.9952027,42.6272008 C69.8992027,43.3760008 69.8032027,43.9904008 69.8032027,44.7776009 C69.8032027,45.7376009 70.2448027,46.1024009 71.7040027,46.1024009 C74.2768028,46.1024009 74.9872029,45.6032009 74.9872029,44.8160009 C74.9872029,44.4128009 74.7952029,43.7984008 73.8928028,42.8192008 L76.1776029,42.0512008 C76.3696029,41.9936008 76.5232029,42.0704008 76.6000029,42.1664008 C78.001603,43.6448008 78.232003,44.5472009 78.232003,45.4304009 C78.232003,47.350401 76.6576029,48.771201 71.7232027,48.771201 C67.9600026,48.771201 66.8848025,47.254401 66.8848025,45.2960009 C66.8848025,44.2016008 66.9808025,43.4336008 67.0768026,42.6272008 C64.5232024,42.4928008 63.4672024,41.9936008 63.4672024,40.4576007 C63.4672024,39.9968007 63.5440024,39.5168007 63.8128024,38.9024006 L63.9664024,38.8256006 L66.0208025,38.7488006 Z M84.3752032,37.1744006 L84.2024032,37.1744006 L82.0712031,37.2320006 L81.9368031,37.1168006 L81.9368031,35.0240005 L82.0520031,34.9088005 L84.2024032,34.9664005 L84.7208032,34.9664005 L84.7208032,31.2800003 L84.8168032,31.1648003 L87.1400033,31.1648003 L87.2552033,31.2800003 L87.2552033,34.9664005 L87.4472033,34.9664005 L89.5976034,34.9088005 L89.6936034,35.0048005 L89.6936034,37.1360006 L89.5976034,37.2320006 L87.4472033,37.1744006 L87.2552033,37.1744006 L87.2552033,39.1904006 L87.7928033,38.7296006 L87.9848033,38.7296006 C88.8104034,39.5936007 89.4824034,40.4960007 90.0392034,41.3408007 L90.0392034,41.5136007 L88.3496033,42.8960008 L88.1960033,42.8576008 C87.9272033,42.3200008 87.6008033,41.7632007 87.2552033,41.2256007 L87.2552033,42.3392008 L87.3704033,49.5200011 L84.6056032,49.5200011 L84.7976032,41.7824007 C84.3752032,43.0304008 83.8952032,44.0288008 83.2424031,45.1424009 C83.1656031,45.2576009 83.0888031,45.3152009 82.9928031,45.3152009 C82.8968031,45.3152009 82.8008031,45.2384009 82.7240031,45.1040009 L81.5912031,43.0112008 C82.7240031,41.4752007 83.6648032,39.7280007 84.3752032,37.1744006 Z M96.5864037,47.772801 L92.8616035,47.772801 L92.8616035,49.347201 L90.0776034,49.347201 L90.1736034,43.7792008 L90.1736034,35.1584005 L90.1160034,32.5088004 L90.2312034,32.3744004 L92.5352035,32.4320004 L96.7784037,32.4320004 L99.2552038,32.3744004 L99.3896038,32.5088004 L99.3320038,35.1584005 L99.3320038,43.5104008 L99.4280038,49.193601 L96.5864037,49.193601 L96.5864037,47.772801 Z M96.5864037,45.5648009 L96.5864037,43.2608008 L92.8616035,43.2608008 L92.8616035,45.5648009 L96.5864037,45.5648009 Z M96.5864037,41.1104007 L96.5864037,38.9216006 L92.8616035,38.9216006 L92.8616035,41.1104007 L96.5864037,41.1104007 Z M96.5864037,36.7712005 L96.5864037,34.6400005 L92.8616035,34.6400005 L92.8616035,36.7712005 L96.5864037,36.7712005 Z M110.084004,45.9296009 L110.141604,47.619201 C113.309604,46.4096009 114.442404,44.8736009 114.442404,41.2256007 L114.442404,39.9200007 L114.576804,39.7856007 L116.900004,39.7856007 L117.034404,39.9200007 L117.034404,41.6480007 C117.034404,42.0128008 117.015204,42.3776008 116.976804,42.7424008 C117.591204,44.7392009 119.453605,46.5440009 121.911205,47.312001 L120.413605,49.289601 C120.317605,49.424001 120.240805,49.5008011 120.106405,49.5008011 C120.029605,49.5008011 119.933605,49.4816011 119.799205,49.404801 C118.263204,48.694401 117.015204,47.408001 116.112804,45.8720009 C115.229604,47.580801 113.770404,48.828801 111.735204,49.4816011 C111.658404,49.5008011 111.581604,49.5200011 111.524004,49.5200011 C111.408804,49.5200011 111.351204,49.4816011 111.274404,49.385601 L110.141604,48.003201 L110.180004,49.097601 L107.799204,49.097601 L107.799204,48.233601 L106.244004,48.233601 L106.244004,49.328001 L103.959204,49.328001 L104.055204,45.8720009 L104.055204,44.9120009 L103.997604,42.9920008 L104.112804,42.8576008 L106.244004,42.9152008 L107.684004,42.9152008 L110.007204,42.8576008 L110.141604,42.9920008 L110.084004,44.9120009 L110.084004,45.9296009 Z M107.799204,46.2752009 L107.799204,44.8736009 L106.244004,44.8736009 L106.244004,46.2752009 L107.799204,46.2752009 Z M110.621604,34.6016005 L110.621604,35.1776005 C111.140004,34.4480005 111.524004,33.6224004 111.792804,32.7200004 L112.004004,32.6624004 L113.866404,33.4496004 L113.924004,33.6800004 C113.578404,34.5824005 113.175204,35.5616005 112.560804,36.4064005 L112.368804,36.4640005 L110.621604,35.6000005 L110.621604,36.6560005 L110.506404,36.7520005 L108.279204,36.6944005 L105.572004,36.6944005 L103.440804,36.7520005 L103.306404,36.6368005 L103.306404,34.6208005 L103.421604,34.5056005 L105.572004,34.5632005 L108.279204,34.5632005 L110.506404,34.5056005 L110.621604,34.6016005 Z M109.930404,37.4624006 L109.930404,39.2288006 C113.098404,38.0768006 114.442404,36.4256005 114.442404,32.7008004 L114.442404,31.3952003 L114.576804,31.2608003 L116.957604,31.2608003 L117.092004,31.3952003 L117.092004,33.1232004 C117.092004,34.1600004 116.957604,35.1200005 116.688804,35.9840005 C118.224804,36.7520005 120.010405,37.7888006 121.584805,38.9600006 L121.642405,39.1520006 L119.991205,40.8800007 L119.780005,40.9376007 C118.589604,39.9008007 117.111204,38.8256006 115.767204,38.0000006 C114.845604,39.3632007 113.501604,40.4000007 111.735204,40.9568007 C111.658404,40.9760007 111.581604,40.9952007 111.524004,40.9952007 C111.408804,40.9952007 111.351204,40.9568007 111.274404,40.8608007 L109.930404,39.2480006 L109.930404,39.3824007 L109.815204,39.4784007 L107.876004,39.4208007 L106.301604,39.4208007 L104.381604,39.4784007 L104.247204,39.3632007 L104.247204,37.4816006 L104.362404,37.3664006 L106.301604,37.4240006 L107.876004,37.4240006 L109.815204,37.3664006 L109.930404,37.4624006 Z M106.301604,33.8336004 L104.381604,33.8912004 L104.247204,33.7760004 L104.247204,31.8944004 L104.362404,31.7792003 L106.301604,31.8368004 L107.876004,31.8368004 L109.815204,31.7792003 L109.930404,31.8752004 L109.930404,33.7952004 L109.815204,33.8912004 L107.876004,33.8336004 L106.301604,33.8336004 Z M106.301604,42.1472008 L104.381604,42.2048008 L104.247204,42.0896008 L104.247204,40.2080007 L104.362404,40.0928007 L106.301604,40.1504007 L107.876004,40.1504007 L109.815204,40.0928007 L109.930404,40.1888007 L109.930404,42.1088008 L109.815204,42.2048008 L107.876004,42.1472008 L106.301604,42.1472008 Z M111.927204,41.5136007 L113.789604,42.2624008 L113.847204,42.4928008 C113.501604,43.3952008 113.098404,44.3744008 112.484004,45.2192009 L112.292004,45.2768009 L110.448804,44.4128009 L110.391204,44.2400008 C110.986404,43.4528008 111.428004,42.5504008 111.716004,41.5712007 L111.927204,41.5136007 Z M121.200805,33.6992004 L121.220005,33.8912004 C120.509605,34.8128005 120.068005,35.3888005 119.261605,36.1376005 C119.184805,36.2144005 119.146405,36.2528005 119.088805,36.2528005 C119.031205,36.2528005 118.973605,36.2144005 118.896805,36.1568005 L117.284004,34.9472005 C117.994404,34.1024004 118.455204,33.3536004 118.916005,32.4704004 L119.088805,32.4320004 L121.200805,33.6992004 Z M121.469605,42.4352008 L121.488805,42.6272008 C120.759205,43.5488008 120.298405,44.1056008 119.492005,44.8544009 C119.415205,44.9312009 119.376805,44.9696009 119.319205,44.9696009 C119.261605,44.9696009 119.204005,44.9312009 119.127205,44.8736009 L117.552804,43.6832008 C118.263204,42.8384008 118.724004,42.0896008 119.184805,41.2064007 L119.357605,41.1680007 L121.469605,42.4352008 Z M137.836805,38.9792006 L137.856005,38.8064006 L138.854405,38.0960006 L139.046405,38.0768006 C139.756805,38.6720006 140.428805,39.3440006 141.004805,40.1120007 L140.985605,40.3040007 L139.929605,41.0528007 L139.737605,41.0528007 C139.142405,40.2656007 138.604805,39.6320007 137.836805,38.9792006 Z M139.641605,37.7696006 L139.660805,37.5968006 L140.640005,36.8864006 L140.832005,36.8672006 C141.542405,37.4624006 142.156805,38.0768006 142.732805,38.8448006 L142.713605,39.0368006 L141.715205,39.7664007 L141.523205,39.7664007 C140.928005,38.9792006 140.409605,38.4224006 139.641605,37.7696006 Z M125.875205,38.8448006 L125.702405,38.7680006 L125.068805,36.2336005 L125.145605,36.0800005 C130.502405,34.7744005 134.784005,33.8912004 140.198405,32.9120004 L140.371205,33.0080004 L140.928005,35.5616005 L140.793605,35.7344005 C138.662405,35.8880005 136.800005,36.2720005 135.628805,37.2320006 C133.843205,38.6720006 132.844805,40.4192007 132.844805,42.2240008 C132.844805,43.7024008 133.574405,44.4704009 134.707205,44.8160009 C135.763205,45.1424009 137.299205,45.2576009 139.296005,45.2384009 L139.430405,45.3728009 L139.276805,48.291201 L139.123205,48.406401 C136.723205,48.444801 134.630405,48.195201 133.056005,47.523201 C131.155205,46.7168009 129.964805,45.1040009 129.964805,42.4928008 C129.964805,40.1312007 131.289605,38.0960006 132.537605,37.0784006 C130.656005,37.5392006 128.601605,38.0768006 125.875205,38.8448006 Z M147.027206,39.1328006 L147.142406,38.9792006 C149.408006,38.9984006 151.155206,38.7296006 153.094406,38.1344006 C152.787206,37.5968006 152.460806,37.0784006 152.115206,36.5408005 C150.502406,36.9440006 149.062406,37.1552006 147.180806,37.2512006 L147.027206,37.1168006 L146.566406,35.0048005 L146.643206,34.8512005 C148.198406,34.7744005 149.312006,34.6016005 150.598406,34.3136004 C150.214406,33.7568004 149.772806,33.1808004 149.292806,32.5472004 L149.312006,32.3552004 L151.788806,31.5104003 L151.980806,31.5872003 C152.460806,32.2208004 152.902406,32.8736004 153.363206,33.5264004 C154.304006,33.1808004 155.513606,32.6432004 156.416006,32.1248004 L156.608006,32.1440004 L157.779206,34.1408004 L157.760006,34.3328005 C156.876806,34.8128005 155.667206,35.3504005 154.784006,35.6960005 C155.052806,36.1568005 155.283206,36.5024005 155.686406,37.1552006 C156.588806,36.7328005 157.779206,36.1184005 158.643206,35.5424005 L158.816006,35.5616005 L160.160006,37.5584006 L160.102406,37.7504006 C159.123206,38.3648006 157.913606,38.9984006 157.030406,39.4400007 C157.510406,40.3040007 157.952006,41.1104007 158.336006,41.8208007 C158.585606,42.3008008 158.700806,42.7040008 158.700806,43.2032008 C158.700806,44.0864008 157.894406,44.8160009 157.126406,44.8160009 C156.915206,44.8160009 156.531206,44.7200009 156.204806,44.4896009 C155.552006,44.0096008 154.649606,43.6064008 153.094406,43.2032008 L153.132806,42.6080008 C153.766406,42.5504008 154.361606,42.4736008 155.168006,42.3584008 C155.302406,42.3392008 155.360006,42.2624008 155.283206,42.1088008 C155.033606,41.6288007 154.707206,41.0336007 154.419206,40.4960007 C152.364806,41.1680007 150.464006,41.4560007 147.641606,41.4176007 L147.507206,41.3216007 L147.027206,39.1328006 Z M146.777606,45.9872009 L146.777606,45.7952009 L148.371206,44.0864008 L148.544006,44.1056008 C149.888006,45.6032009 152.134406,45.9872009 154.611206,45.9872009 C155.264006,45.9872009 155.705606,45.9680009 156.800006,45.8720009 L156.953606,46.0256009 L157.011206,48.694401 L156.857606,48.828801 C155.916806,48.886401 155.264006,48.905601 154.515206,48.905601 C150.483206,48.905601 148.294406,47.868801 146.777606,45.9872009 Z M167.753606,36.3680005 L167.600006,36.2720005 L167.100806,33.8144004 L167.216006,33.6416004 C170.134406,32.9888004 173.091207,32.5280004 175.184007,32.2592004 C176.144007,32.2592004 176.950407,33.0080004 176.950407,33.9296004 C176.950407,34.2752004 176.892807,34.6400005 176.604807,34.9280005 C175.049607,36.4640005 173.974407,37.4432006 172.380806,39.0176006 C173.302407,38.5568006 173.974407,38.5184006 174.780807,38.5184006 C177.680007,38.5184006 179.619207,40.4960007 179.619207,43.4720008 C179.619207,46.966401 176.988807,48.944001 172.553607,48.944001 C170.288006,48.944001 168.368006,48.003201 168.368006,45.8144009 C168.368006,44.5664009 169.750406,43.1456008 171.305606,43.1456008 C173.590407,43.1456008 174.684807,44.6432009 175.203207,45.9872009 C176.336007,45.4496009 176.681607,44.5472009 176.681607,43.2032008 C176.681607,41.8592007 175.664007,40.7840007 174.070407,40.7840007 C171.324806,40.7840007 169.347206,42.5888008 167.312006,45.2192009 L167.120006,45.2384009 L165.065606,43.5872008 L165.046406,43.3760008 C167.696006,40.3424007 170.115206,37.6928006 172.668807,35.1584005 C171.209606,35.4656005 169.520006,35.8688005 167.753606,36.3680005 Z M172.803207,46.6016009 C172.611207,45.7760009 171.958406,45.3920009 171.497606,45.3920009 C171.113606,45.3920009 170.768006,45.5456009 170.768006,45.8912009 C170.768006,46.2944009 171.209606,46.6592009 172.188806,46.6592009 C172.457606,46.6592009 172.649607,46.6400009 172.803207,46.6016009 Z M7.50560034,62.9264016 L4.74080023,62.9264016 L2.11040012,62.9840016 L1.97600012,62.8304016 L1.97600012,60.3728015 L2.14880013,60.2576015 L4.76000023,60.3152015 L9.23360041,60.3152015 L9.1760004,57.4160014 L9.31040041,57.2816014 L12.0560005,57.2816014 L12.2096005,57.4160014 L12.2672005,60.3152015 L13.3232006,60.3152015 L16.0688007,60.2576015 L16.2416007,60.3728015 L16.2416007,62.8304016 L16.1072007,62.9840016 L13.3040006,62.9264016 L12.3056005,62.9264016 L12.4400005,70.2224019 C12.4592005,71.6624019 11.9408005,72.776002 8.54240038,72.872002 C8.06240036,72.872002 8.04320036,72.852802 7.88960035,72.526402 L6.68000031,69.9536019 C7.85120035,69.9536019 8.52320038,69.9344019 9.0800004,69.8960019 C9.27200041,69.8768019 9.40640041,69.7424019 9.40640041,69.2816014 L9.38720041,66.4592017 L9.46400042,65.0192017 C7.40960033,67.6304018 4.81760023,69.7040019 2.66720015,70.9520019 C2.37920013,71.1248019 2.24480013,71.1440019 2.03360012,70.9712019 L0.0368000412,69.2240018 C3.18560017,67.3808018 5.60480026,65.4224017 7.50560034,62.9264016 Z M19.9472008,61.1792015 L19.9280008,61.0064015 L21.7904009,58.9136014 L21.9824009,58.8752014 C23.1344009,59.4512014 24.670401,60.4688015 25.8800011,61.5248015 L25.8800011,61.7168015 L23.883201,64.0400016 L23.710401,64.0592016 C22.5584009,62.9456016 21.2720009,62.0048015 19.9472008,61.1792015 Z M33.7520014,59.5856015 L34.8080014,62.6000016 C34.8656014,62.7536016 34.8848014,62.8688016 34.8848014,62.9648016 C34.8848014,63.0992016 34.8272014,63.1760016 34.6928014,63.3104016 C31.2752013,67.0736018 27.1088011,69.8768019 22.0400009,72.180802 L21.8480009,72.142402 L20.1200008,69.5504018 L20.1584008,69.3584018 C24.920001,67.5344018 29.8352012,64.1552016 33.7520014,59.5856015 Z M38.4032016,64.4432016 L38.2688016,64.2896016 L38.2688016,61.7744015 L38.4416016,61.6592015 L41.0720017,61.7168015 L48.444802,61.7168015 L51.1328021,61.6592015 L51.2672021,61.8128015 C50.5952021,67.8992018 47.6960019,71.1248019 42.3584017,72.968002 C42.1856017,73.025602 42.0512017,73.064002 41.9552017,73.064002 C41.8016017,73.064002 41.6864017,73.006402 41.5136017,72.852802 L39.3440016,71.0480019 C43.7600018,69.7040019 46.6400019,67.6880018 47.4848019,64.3856016 L41.0528017,64.3856016 L38.4032016,64.4432016 Z M49.481602,60.3152015 L46.8896019,60.2576015 L42.4544017,60.2576015 L40.1120016,60.3152015 L39.9776016,60.1616015 L39.9776016,57.6848014 L40.1504016,57.5696014 L42.4736017,57.6272014 L46.8128019,57.6272014 L49.462402,57.5696014 L49.616002,57.7040014 L49.616002,60.1616015 L49.481602,60.3152015 Z M61.6928026,66.6896017 L61.6928026,64.5008016 C60.2336025,65.5376017 58.7168024,66.5168017 57.0272024,67.4960018 C56.6432024,67.7072018 56.5472024,67.7072018 56.2016023,67.4192018 L54.1472023,65.6336017 C58.6592024,63.4448016 62.2304026,61.0640015 65.7248027,56.9744014 L65.9552027,56.9744014 L68.3552028,58.6448014 L68.3744028,58.8752014 C67.1456028,60.1424015 65.9552027,61.2368015 64.8224027,62.1968016 L64.8224027,66.6320017 L64.9184027,72.660802 L61.5968026,72.660802 L61.6928026,66.6896017 Z M73.6112031,61.1792015 L73.5920031,61.0064015 L75.4544031,58.9136014 L75.6464031,58.8752014 C76.7984032,59.4512014 78.3344032,60.4688015 79.5440033,61.5248015 L79.5440033,61.7168015 L77.5472032,64.0400016 L77.3744032,64.0592016 C76.2224032,62.9456016 74.9360031,62.0048015 73.6112031,61.1792015 Z M87.4160036,59.5856015 L88.4720036,62.6000016 C88.5296036,62.7536016 88.5488036,62.8688016 88.5488036,62.9648016 C88.5488036,63.0992016 88.4912036,63.1760016 88.3568036,63.3104016 C84.9392035,67.0736018 80.7728033,69.8768019 75.7040031,72.180802 L75.5120031,72.142402 L73.7840031,69.5504018 L73.8224031,69.3584018 C78.5840033,67.5344018 83.4992034,64.1552016 87.4160036,59.5856015 Z M97.5568041,60.7952015 L97.7680041,60.7568015 C98.9392042,61.3520015 100.014404,61.9664015 101.032004,62.6384016 C101.934404,61.0064015 102.721604,59.2208014 103.393604,57.2432014 L103.547204,57.1856014 L106.388804,58.2608014 L106.446404,58.4144014 C105.640004,60.5648015 104.680004,62.6000016 103.528004,64.4816016 C104.603204,65.3648017 105.601604,66.3248017 106.504004,67.3616018 L106.523204,67.5728018 L104.411204,69.7040019 L104.238404,69.7040019 C103.432004,68.7632018 102.606404,67.8992018 101.723204,67.0736018 C99.9760042,69.3008018 97.8640041,71.2592019 95.291204,72.795202 C95.195204,72.852802 95.099204,72.891202 95.022404,72.891202 C94.926404,72.891202 94.811204,72.852802 94.676804,72.737602 L92.4688039,71.1056019 C95.233604,69.6464019 97.5184041,67.6688018 99.3808042,65.1728017 C98.3056042,64.3856016 97.1152041,63.6368016 95.7520041,62.9072016 L95.7520041,62.7344016 L97.5568041,60.7952015 Z M111.944805,61.1792015 L111.925605,61.0064015 L113.788005,58.9136014 L113.980005,58.8752014 C115.132005,59.4512014 116.668005,60.4688015 117.877605,61.5248015 L117.877605,61.7168015 L115.880805,64.0400016 L115.708005,64.0592016 C114.556005,62.9456016 113.269605,62.0048015 111.944805,61.1792015 Z M125.749605,59.5856015 L126.805605,62.6000016 C126.863205,62.7536016 126.882405,62.8688016 126.882405,62.9648016 C126.882405,63.0992016 126.824805,63.1760016 126.690405,63.3104016 C123.272805,67.0736018 119.106405,69.8768019 114.037605,72.180802 L113.845605,72.142402 L112.117605,69.5504018 L112.156005,69.3584018 C116.917605,67.5344018 121.832805,64.1552016 125.749605,59.5856015 Z M141.565606,58.9520014 L143.005606,60.4112015 C143.140006,60.5648015 143.216806,60.6416015 143.216806,60.7568015 C143.216806,60.8336015 143.197606,60.9296015 143.120806,61.0832015 C142.218406,63.0416016 141.200806,64.7888017 140.087206,66.3056017 C140.701606,66.8240017 141.316006,67.3808018 141.911206,67.9952018 L141.911206,68.2064018 L140.048806,70.2800019 L139.876006,70.2992019 C139.319206,69.6848019 138.762406,69.1280018 138.186406,68.5712018 C136.439206,70.3568019 134.346405,71.8352019 131.716005,73.160002 C131.543205,73.256002 131.428005,73.294402 131.351205,73.294402 C131.216805,73.294402 131.101605,73.236802 130.909605,73.102402 L128.663205,71.5664019 C131.754405,70.2416019 134.212005,68.5904018 136.055206,66.7280017 C135.402406,66.2288017 134.692005,65.7296017 133.904805,65.2496017 L133.904805,65.0576017 L135.536806,63.2720016 L135.748006,63.2528016 C136.458406,63.6752016 137.149606,64.0976016 137.802406,64.5392017 C138.474406,63.5984016 139.069606,62.5616016 139.511206,61.5248015 L135.786406,61.5440015 C134.538405,63.2720016 133.213605,64.7504017 131.869605,65.9792017 C131.504805,66.2480017 131.408805,66.2288017 131.063205,65.9984017 L128.970405,64.6544017 C131.524005,62.6768016 133.828005,59.8928015 135.191206,56.7824013 L135.383206,56.7248013 L137.994406,57.6656014 L138.032806,57.8768014 C137.821606,58.2992014 137.591206,58.7024014 137.360806,59.1056014 L139.991206,59.0672014 L141.565606,58.9520014 Z M161.951207,66.6320017 L159.071206,66.5744017 L150.488806,66.5744017 L147.628006,66.6320017 L147.493606,66.4784017 L147.493606,63.7328016 L147.666406,63.6176016 L150.412006,63.6752016 L158.975206,63.6752016 L161.932007,63.6176016 L162.085607,63.7520016 L162.085607,66.4784017 L161.951207,66.6320017 Z M164.884007,66.6704017 L164.884007,66.4592017 C167.034407,64.7120017 168.551207,63.2336016 169.664807,61.5632015 C168.743207,61.6400015 167.783207,61.6592015 166.880807,61.6592015 L166.765607,61.5440015 L166.688807,59.1824014 L166.823207,59.0672014 C168.263207,59.0672014 169.684007,59.0288014 171.104807,58.9328014 C171.450407,58.1456014 171.738407,57.3008014 172.007207,56.3600013 L172.160807,56.2640013 L174.791207,56.6480013 L174.906407,56.7824013 C174.676007,57.4544014 174.445607,58.0304014 174.234407,58.5872014 C175.194407,58.4336014 176.154407,58.2608014 177.114407,58.0304014 L177.287207,58.1264014 L177.479207,60.3920015 L177.364007,60.5648015 C175.962407,60.8528015 174.388007,61.1024015 172.794407,61.2944015 C172.487207,61.7552015 172.064807,62.3504016 171.680807,62.8112016 C172.256807,62.6384016 172.717607,62.5616016 173.485607,62.5616016 C174.676007,62.5616016 175.540007,63.3104016 175.828007,64.4048016 C177.037607,63.9440016 178.400807,63.4640016 179.898407,62.9648016 L180.090407,63.0416016 L181.280807,65.4032017 L181.184807,65.5760017 C179.245607,66.0752017 177.594407,66.5744017 176.173607,67.0928018 C176.212007,67.8416018 176.231207,68.7824018 176.250407,69.7040019 L176.116007,69.8192019 L173.581607,69.9152019 L173.428007,69.8000019 L173.428007,68.2256018 C172.256807,68.7824018 171.604007,69.3200018 171.604007,69.9728019 C171.604007,70.6256019 172.372007,70.7984019 174.080807,70.8176019 C175.482407,70.8368019 177.402407,70.6640019 179.092007,70.4144019 L179.284007,70.5296019 L179.456807,73.083202 L179.341607,73.236802 C177.517607,73.390402 175.904807,73.486402 173.658407,73.486402 C169.780007,73.486402 168.762407,71.8544019 168.762407,70.2032019 C168.762407,68.3600018 170.317607,67.0736018 172.103207,66.0560017 C172.448807,65.8640017 172.832807,65.6720017 173.255207,65.4800017 C173.159207,65.0000017 172.871207,64.7504017 172.295207,64.7504017 C171.527207,64.7504017 170.778407,64.9424017 170.106407,65.4224017 C169.261607,66.0368017 167.956007,67.2656018 166.765607,68.5328018 L166.573607,68.5520018 L164.884007,66.6704017 Z M9.31040041,98.067203 L7.16000032,96.5312029 C9.59840042,95.7056029 10.9424005,93.9392028 11.5952005,92.3840028 C10.3280005,91.7888027 9.0608004,91.4240027 7.64000034,91.2896027 C6.77600031,93.3824028 6.29600029,94.5536028 5.79680027,95.3024029 C5.12480024,96.3200029 4.24160021,96.8768029 2.82080015,96.8768029 C1.05440008,96.8768029 0.0752000427,95.3600029 0.0752000427,93.8624028 C0.0752000427,91.0592027 1.89920012,89.1968026 5.70080027,88.7168026 C6.29600029,87.2000026 6.6032003,86.2976025 7.12160032,84.7424025 C6.25760029,84.9152025 5.20160025,85.1264025 3.9920002,85.3568025 L3.81920019,85.2224025 L3.28160017,82.8224024 L3.37760017,82.6496024 C5.48960026,82.2656024 7.21760033,81.9776023 8.38880037,81.7856023 C8.61920038,81.7472023 8.83040039,81.7280023 9.0416004,81.7280023 C10.1168004,81.7280023 10.7312005,82.3232024 10.7312005,83.1680024 C10.7312005,83.3792024 10.6736005,83.6096024 10.5968005,83.8592024 C10.0784004,85.3568025 9.42560041,86.8736025 8.61920038,88.8512026 C9.77120043,88.9856026 11.0384005,89.2736026 12.2480005,89.6960027 C12.3056005,89.0240026 12.3248005,88.2752026 12.2672005,87.3920026 L12.3824005,87.2576026 L14.9552006,87.6224026 L15.0512006,87.7952026 C15.0896006,88.9280026 15.0896006,89.9264027 14.9552006,90.8672027 C15.7424007,91.2704027 16.5296007,91.7504027 17.2592007,92.2688028 L17.2976007,92.4800028 L15.9536007,94.8032029 L15.7616007,94.8800029 C15.1664006,94.4192028 14.5904006,94.0544028 14.0912006,93.7280023 C13.1888006,95.5712029 11.6912005,97.318403 9.82880043,98.201603 C9.56000042,98.201603 9.48320042,98.182403 9.31040041,98.067203 Z M4.62560022,91.3280027 C3.64640018,91.4240027 2.55200014,92.3648028 2.55200014,93.6128028 C2.55200014,94.0160028 2.66720015,94.2080028 2.89760015,94.2080028 C3.14720016,94.2080028 3.37760017,94.0352028 3.60800018,93.6128028 C3.89600019,93.0368028 4.1456002,92.4992028 4.62560022,91.3280027 Z M19.6928008,90.0800027 L19.5008008,90.0224027 L18.2720008,87.5072026 L18.3296008,87.3344026 C23.590401,84.8960025 27.0848011,83.7440024 29.5616012,83.7440024 C33.1136014,83.7440024 35.4752015,85.8368025 35.4752015,89.4080026 C35.4752015,92.4224028 33.4208014,94.4192028 31.5776013,95.2448029 C30.0608013,95.9360029 28.1408012,96.3776029 25.8176011,96.5696029 C25.5104011,96.5696029 25.4144011,96.5696029 25.2992011,96.3776029 L23.763201,93.8048028 C26.0288011,93.6896028 27.9488012,93.4016028 29.6576012,92.7104028 C31.5776013,91.9424027 32.2880013,90.8096027 32.2880013,89.0048026 C32.2880013,87.5264026 31.3280013,86.5664025 29.4080012,86.5472025 C27.3728011,86.5280025 24.512001,87.5840026 19.6928008,90.0800027 Z M46.4720019,98.259203 L44.2256018,96.6272029 C45.9344019,95.9552029 47.0288019,94.9376029 47.662402,93.8624028 C48.084802,93.1712028 48.315202,92.1152027 48.315202,90.3104027 C48.315202,89.7152027 48.315202,88.8512026 48.276802,87.9680026 C47.0096019,88.0256026 45.6848019,88.0448026 44.2832018,88.0640026 L44.1680018,87.8912026 L44.1104018,85.5488025 L44.2640018,85.4528025 C45.5504019,85.4528025 46.8944019,85.4144025 48.161602,85.3376025 C48.123202,84.2432024 48.046402,83.0720024 47.969602,81.8432023 L48.123202,81.7280023 L50.7536021,81.6704023 L50.8880021,81.8048023 C50.9456021,82.9376024 51.0032021,84.0320024 51.0416021,85.1264025 C52.0208021,85.0496025 52.9040022,84.9344025 53.7104022,84.8384025 L53.8448022,84.9536025 L53.9600022,87.3344026 L53.8448022,87.4688026 C53.0000022,87.5840026 52.0976021,87.6992026 51.1184021,87.7760026 C51.1568021,88.7552026 51.1760021,89.7344027 51.1760021,90.3680027 C51.1760021,93.0944028 50.8112021,94.5536028 50.1200021,95.5904029 C49.448002,96.6464029 48.372802,97.683203 46.8752019,98.316803 C46.8176019,98.336003 46.7600019,98.355203 46.7216019,98.355203 C46.6448019,98.355203 46.5488019,98.316803 46.4720019,98.259203 Z M39.2144016,81.9008023 L39.3680016,81.7856023 L41.9216017,82.0736023 L42.0560018,82.2272024 C42.0176017,83.4752024 41.7872017,84.9920025 41.4608017,86.6048025 C41.1728017,88.0256026 40.8656017,89.4080026 40.8656017,91.0016027 C40.8656017,91.8272027 40.9424017,92.6144028 41.0960017,93.2480028 C41.1536017,93.4784028 41.2880017,93.4976028 41.5184017,93.2672028 C41.8832017,92.9024028 42.2288018,92.5376028 42.8048018,91.7888027 L43.3232018,92.0768027 C42.6704018,94.1312028 42.4592018,94.7072028 42.4976018,95.5712029 C42.5744018,96.7808029 42.0752018,97.356803 41.0768017,97.356803 C40.3280017,97.356803 39.6944017,96.8000029 39.3104016,96.1664029 C38.7728016,95.2640029 38.1584016,93.5744028 38.1584016,90.9632027 C38.1584016,89.2544026 38.5424016,86.7968025 38.8304016,85.2800025 C39.0608016,84.0512024 39.1760016,83.0336024 39.2144016,81.9008023 Z M69.0464028,86.9120025 L68.9504028,87.1040025 C67.5104028,87.5456026 65.8976027,87.8144026 64.2080027,87.9488026 C64.2656027,89.2544026 64.3424027,90.4448027 64.4576027,91.6160027 C66.4736027,92.4416028 68.5664028,93.5168028 70.3904029,94.9568029 L70.4096029,95.1680029 L68.6816028,97.356803 L68.4704028,97.376003 C66.9920028,95.9744029 65.6864027,95.1104029 64.4960027,94.5152028 C64.2656027,96.2816029 62.8832026,97.740803 60.0416025,97.740803 C57.3920024,97.740803 55.5296023,96.6848029 55.5296023,94.3232028 C55.5296023,92.3264028 57.6416024,91.0400027 60.2528025,91.0400027 C60.9824025,91.0400027 61.1744025,91.0592027 61.5584025,91.0976027 C61.3280025,88.1984026 61.1744025,85.5872025 61.1360025,81.6896023 L61.2896025,81.5552023 L63.9584026,81.5552023 L64.1120026,81.6896023 C64.1120026,82.9568024 64.1120026,84.1280024 64.1312026,85.2224025 C65.7056027,85.0688025 67.0112028,84.8000025 68.3360028,84.3776024 L68.5280028,84.4736024 L69.0464028,86.9120025 Z M61.4624025,93.6704028 C60.9632025,93.5168028 60.6368025,93.4400028 59.8496025,93.4400028 C58.8320024,93.4400028 58.2176024,93.8240028 58.2176024,94.3040028 C58.2176024,94.9376029 58.8512024,95.2064029 59.8880025,95.2064029 C60.9248025,95.2064029 61.4816025,94.6304028 61.4624025,93.6704028 Z M76.2656032,83.1488024 L76.1888032,82.9952024 L76.8992032,80.5952023 L77.0720032,80.5376023 C78.8768033,81.0368023 80.6432034,81.3248023 82.8320035,81.4592023 L82.9472035,81.5936023 L82.5056034,84.2240024 L82.3520034,84.3200024 C80.2784034,84.0512024 78.3008033,83.7248024 76.2656032,83.1488024 Z M74.5376031,89.7152027 L74.3648031,89.6384026 L73.6352031,87.1232025 L73.7312031,86.9504025 C75.0560032,86.6432025 76.4960032,86.1824025 77.6864033,85.8560025 C78.8192033,85.5488025 79.6064033,85.3184025 80.2976034,85.3184025 C82.7552035,85.3184025 84.3488035,87.1040025 84.3488035,90.7136027 C84.3488035,95.3408029 81.8912034,97.337603 77.8592033,98.355203 C77.6864033,98.355203 77.6288033,98.336003 77.5328032,98.201603 L75.7088032,96.0128029 C79.5488033,95.2064029 81.2000034,93.7088028 81.2000034,91.1360027 C81.2000034,88.9664026 80.7968034,88.1984026 79.9904033,88.1984026 C79.5680033,88.1984026 78.8768033,88.3904026 78.0320033,88.6784026 C77.0144032,88.9856026 75.7856032,89.3696026 74.5376031,89.7152027 Z" id="いつでも相談できるオンラインメンターをみつけよう" fill="#FFFFFF" fill-rule="nonzero"></path>
                        <g id="Group-2" transform="translate(0.200000, 0.000000)">
                            <path d="M5.25540021,15.6118007 L6.38400025,15.6118007 C5.91660024,15.4180007 5.43780022,15.2356007 4.9248002,15.0760007 L4.90200019,14.9848007 L5.56320022,14.3350006 L5.36940021,14.3350006 L3.64800014,14.3692007 L3.56820014,14.3008006 L3.56820014,13.1836006 L3.65940015,13.1038006 L5.36940021,13.1380006 L8.65260034,13.1380006 L9.45060038,13.0810006 L10.0320004,13.6510006 C10.1118004,13.7194006 10.1574004,13.7992006 10.1574004,13.8790006 C10.1574004,13.9702006 10.1118004,14.0500006 9.9978004,14.1526006 C9.48480038,14.6086007 9.00600036,15.0076007 8.51580034,15.3724007 C8.57280034,15.4066007 8.62980034,15.4294007 8.67540034,15.4636007 L8.69820035,15.5776007 L8.65260034,15.6118007 L9.26820037,15.6118007 L10.4994004,15.5776007 L10.5792004,15.6574007 L10.5450004,16.6720007 L10.5450004,18.4732008 L10.5906004,20.4796009 C10.5906004,21.5398009 10.1574004,21.7792009 8.78940035,21.7792009 C8.60700034,21.7792009 8.58420034,21.7564009 8.53860034,21.6538009 L8.07120032,20.5138009 C8.43600034,20.5252009 8.60700034,20.5138009 8.84640035,20.5024009 C8.97180036,20.4796009 9.04020036,20.4796009 9.04020036,20.2744009 L9.04020036,19.8982009 L7.93440032,19.8982009 L7.96860032,21.6880009 L6.38400025,21.6880009 L6.41820026,19.8982009 L5.43780022,19.8982009 L5.43780022,21.6994009 L3.92160016,21.6994009 L3.97860016,18.6784008 L3.97860016,16.6720007 L3.94440016,15.6574007 L4.02420016,15.5776007 L5.25540021,15.6118007 Z M7.78620031,14.3350006 L6.16740025,14.3350006 C6.54360026,14.4718007 6.93120028,14.6200007 7.29600029,14.7910007 C7.4784003,14.6200007 7.6266003,14.4832007 7.78620031,14.3350006 Z M6.44100026,16.7176007 L5.43780022,16.7176007 L5.43780022,17.2876008 L6.44100026,17.2876008 L6.44100026,16.7176007 Z M7.91160031,16.7176007 L7.91160031,17.2876008 L9.04020036,17.2876008 L9.04020036,16.7176007 L7.91160031,16.7176007 Z M7.91160031,18.8950008 L9.04020036,18.8950008 L9.04020036,18.2908008 L7.91160031,18.2908008 L7.91160031,18.8950008 Z M6.44100026,18.8950008 L6.44100026,18.2908008 L5.43780022,18.2908008 L5.43780022,18.8950008 L6.44100026,18.8950008 Z M11.2860004,21.8362009 L10.6476004,23.318201 C10.6020004,23.432201 10.5678004,23.432201 10.4424004,23.432201 C9.49620038,23.466401 8.53860034,23.489201 7.6608003,23.489201 C6.65760026,23.489201 5.73420023,23.466401 5.0160002,23.409401 C4.02420016,23.341001 3.10080012,23.113001 2.4282001,22.269401 C1.99500008,22.622801 1.55040006,23.044601 1.06020004,23.477801 L0.957600038,23.432201 L0.148200006,22.098401 L0.182400007,21.995801 C0.76380003,21.6310009 1.20840005,21.3688009 1.73280007,21.0838009 L1.73280007,18.6556008 L1.47060006,18.6556008 L0.433200017,18.6898008 L0.353400014,18.6214008 L0.353400014,17.3218008 L0.421800017,17.2534008 L1.47060006,17.2876008 L1.74420007,17.2876008 L3.21480013,17.2534008 L3.29460013,17.3332008 L3.26040013,19.0432008 L3.26040013,21.2206009 C3.65940015,21.8248009 4.49160018,21.984401 5.56320022,22.030001 C6.97680028,22.087001 9.32520037,21.984401 11.2860004,21.8362009 Z M3.29460013,14.6884007 L2.24580009,15.5890007 L2.09760008,15.5890007 C1.61880006,14.9734007 1.20840005,14.5402007 0.490200019,14.0044006 L0.50160002,13.9132006 L1.50480006,13.1038006 L1.64160007,13.1266006 C2.24580009,13.5370006 2.74740011,13.9474006 3.30600013,14.5630007 L3.29460013,14.6884007 Z M19.8877508,22.155401 L19.8877508,23.272601 L18.2917507,23.272601 L18.3259507,17.6980008 L18.3259507,15.4522007 L18.2917507,14.0956006 L18.3601507,14.0272006 L19.9333508,14.0614006 L21.3697509,14.0614006 L22.8631509,14.0272006 L22.9543509,14.1184006 L22.9201509,15.5092007 L22.9201509,17.6182008 L22.9543509,23.021801 L21.3127509,23.021801 L21.3127509,22.155401 L19.8877508,22.155401 Z M19.8877508,20.8444009 L21.3127509,20.8444009 L21.3127509,15.3724007 L19.8877508,15.3724007 L19.8877508,20.8444009 Z M14.6665506,15.7600007 L14.2333506,15.7600007 C14.0623506,16.1476007 13.8685506,16.5238007 13.6633506,16.8658007 C13.6291506,16.9228008 13.5949506,16.9456008 13.5493506,16.9456008 C13.4923506,16.9456008 13.4353505,16.9228008 13.3669505,16.8886008 L12.2725505,16.3414007 C12.8311505,15.4408007 13.3213505,14.2666006 13.6063506,13.0126006 L13.6975506,12.9556006 L15.0199506,13.3432006 L15.0655506,13.4572006 C14.9743506,13.7764006 14.8603506,14.1184006 14.7463506,14.4490007 L16.2397507,14.4490007 L17.7445507,14.4148007 L17.8129507,14.4718007 L17.8129507,15.7372007 L17.7445507,15.7942007 L16.2511507,15.7600007 C16.2397507,16.2730007 16.2397507,16.7974007 16.2169507,17.3104008 L16.3879507,17.3104008 L17.8927507,17.2762008 L17.9611507,17.3332008 L17.9611507,18.5986008 L17.8927507,18.6556008 L16.3879507,18.6214008 L16.1371507,18.6214008 C16.0801507,19.1686008 15.9775506,19.7044009 15.8179506,20.2402009 L16.5133507,19.7386009 L16.6501507,19.7728009 C17.2771507,20.4112009 17.8243507,21.1066009 18.1777507,21.7678009 L18.1321507,21.8818009 L16.9807507,22.668401 L16.8439507,22.645601 C16.5589507,22.041401 16.1257507,21.3460009 15.6355506,20.7418009 C15.2365506,21.7792009 14.6095506,22.782401 13.6633506,23.443601 C13.6063506,23.489201 13.5607506,23.500601 13.5379506,23.500601 C13.4923506,23.500601 13.4581505,23.466401 13.4011505,23.432201 L12.2725505,22.588601 C13.1959505,21.961601 13.8115506,21.2776009 14.2561506,20.0236009 C14.4043506,19.5904009 14.5069506,19.1914008 14.5639506,18.6214008 L13.8913506,18.6214008 L12.3979505,18.6556008 L12.3181505,18.5872008 L12.3181505,17.3446008 L12.3865505,17.2762008 L13.8913506,17.3104008 L14.6437506,17.3104008 C14.6551506,16.7974007 14.6665506,16.2730007 14.6665506,15.7600007 Z M30.9561012,14.7226007 L30.9561012,13.0582006 L31.0359013,12.9670006 L32.3127013,12.9670006 L32.3925013,13.0468006 L32.3925013,14.8024007 L32.6547013,14.4946007 L32.7915013,14.4946007 L32.8599013,14.5402007 C33.0765013,14.0386006 33.2247013,13.5826006 33.3501013,13.1266006 L33.4869013,13.0924006 L34.2735014,13.3774006 L34.3191014,13.5256006 C34.1253014,14.0614006 33.8973014,14.6086007 33.6465014,15.0988007 C33.7149014,15.1558007 33.7833014,15.2014007 33.8403014,15.2470007 C34.0113014,14.8936007 34.1709014,14.5516007 34.3191014,14.2210006 L34.4559014,14.1754006 L35.3451014,14.6086007 L35.3565014,14.7340007 C35.0829014,15.2470007 34.7751014,15.8056007 34.4559014,16.3300007 L34.5129014,16.2730007 L35.1399014,16.1362007 L35.2311014,16.1818007 C35.4819014,16.6606007 35.6415014,17.1508008 35.7669014,17.7322008 L35.6757014,17.8234008 L34.8435014,18.0514008 L34.7523014,17.9830008 C34.7409014,17.8690008 34.7181014,17.7664008 34.6953014,17.6638008 C34.2051014,17.7664008 33.6237014,17.8576008 32.7915013,17.9944008 L32.6889013,17.9146008 L32.4951013,17.3560008 C32.5293013,17.7892008 32.5635013,18.2224008 32.6433013,18.6556008 L33.5211013,18.6556008 C33.4413013,18.5074008 33.3615013,18.3820008 33.2589013,18.2452008 L33.3045013,18.1426008 L34.1139014,17.8120008 L34.2051014,17.8348008 C34.4103014,18.0742008 34.6155014,18.3592008 34.7523014,18.6328008 L35.5503014,18.6214008 L35.6301014,18.6898008 L35.6301014,19.7842009 L35.5503014,19.8526009 L33.8631014,19.8184009 L32.8713013,19.8184009 C32.9739013,20.1946009 33.0765013,20.4796009 33.1791013,20.7076009 L33.2019013,20.7418009 C33.4299013,20.5024009 33.6237014,20.2516009 33.8517014,19.9324009 L33.9543014,19.9210009 L34.8663014,20.5366009 L34.8777014,20.6734009 C34.5357014,21.1522009 34.1937014,21.5284009 33.8403014,21.8476009 C34.0227014,22.052801 34.1823014,22.166801 34.3191014,22.166801 C34.5015014,22.166801 34.5927014,22.041401 34.6839014,21.1294009 L35.5389014,21.6880009 C35.6643014,21.7678009 35.7213014,21.8590009 35.6985014,21.995801 C35.5503014,23.147201 35.2425014,23.660201 34.3419014,23.660201 C33.8745014,23.660201 33.3159013,23.477801 32.7117013,22.691201 C32.0619013,23.090201 31.4235013,23.363801 30.7509012,23.569001 C30.6939012,23.591801 30.6597012,23.591801 30.6141012,23.591801 C30.5229012,23.591801 30.4545012,23.546201 30.3861012,23.443601 L29.7363012,22.554401 C30.6027012,22.315001 31.2981013,22.064201 32.0619013,21.5740009 L31.9593013,21.3688009 C31.7883013,20.9812009 31.6059013,20.4682009 31.4577013,19.8184009 L30.2037012,19.8184009 C30.1923012,20.0806009 30.1695012,20.3314009 30.1353012,20.5936009 L30.5343012,20.2858009 L30.6483012,20.2972009 C31.0017012,20.5252009 31.2525013,20.7076009 31.6287013,21.0724009 L31.6401013,21.1864009 L30.7965012,21.916001 L30.6711012,21.916001 C30.4659012,21.6994009 30.2493012,21.4942009 30.0099012,21.2890009 C29.7705012,22.223801 29.3259012,22.896401 28.5849012,23.534801 C28.5393012,23.580401 28.5051011,23.603201 28.4709011,23.603201 C28.4367011,23.603201 28.4139011,23.580401 28.3797011,23.557601 L27.3765011,22.736801 L27.3993011,23.740001 L25.883101,23.740001 L25.985701,19.7956009 C25.860301,20.2060009 25.723501,20.6164009 25.529701,21.0268009 C25.495501,21.0952009 25.449901,21.1294009 25.404301,21.1294009 C25.347301,21.1294009 25.278901,21.0838009 25.233301,21.0040009 L24.560701,19.8640009 C25.062301,18.9748008 25.529701,17.8690008 25.894501,16.3414007 L24.822901,16.3756007 L24.743101,16.3072007 L24.743101,15.0646007 L24.811501,14.9962007 L25.951501,15.0304007 L25.951501,12.8986006 L26.0085011,12.8302006 L27.2511011,12.8302006 L27.3195011,12.8986006 L27.3195011,15.0190007 L27.9123011,15.0076007 L28.3569011,14.4718007 L28.4937011,14.4718007 C28.5279012,14.4946007 28.5735012,14.5288007 28.6191012,14.5516007 C28.8471012,14.0500006 29.0181012,13.5712006 29.1777012,13.0924006 L29.3145012,13.0696006 L30.1011012,13.3660006 L30.1467012,13.5142006 C29.9301012,14.0614006 29.6679012,14.6086007 29.4171012,15.1102007 C29.4855012,15.1672007 29.5653012,15.2242007 29.6337012,15.2812007 C29.7933012,14.9506007 29.9415012,14.6314007 30.0555012,14.3692007 L30.1695012,14.3350006 L30.9561012,14.7226007 Z M31.1613013,18.1198008 L30.4773012,18.3022008 L30.3861012,18.2338008 C30.3747012,18.1312008 30.3519012,18.0172008 30.3291012,17.8918008 C29.7705012,18.0058008 29.0865012,18.1084008 28.4139011,18.1996008 L28.3113011,18.1198008 L28.0377011,17.2648008 L28.1175011,17.1736008 C28.2999011,17.1622008 28.4709011,17.1622008 28.6305012,17.1508008 C28.8015012,16.8544007 28.9611012,16.5580007 29.1321012,16.2616007 C28.8243012,15.9880007 28.5165012,15.7372007 28.1859011,15.4978007 L28.1859011,16.3186007 L28.1289011,16.3756007 L27.3195011,16.3528007 L27.3195011,17.3674008 L27.5475011,17.1850008 L27.6501011,17.1850008 C27.9921011,17.6068008 28.3227011,18.1312008 28.6191012,18.6328008 L29.8047012,18.6556008 L31.2297013,18.6556008 C31.1955013,18.4732008 31.1841013,18.2908008 31.1613013,18.1198008 Z M30.7167012,16.2844007 L30.8079012,16.3300007 C30.8877012,16.4896007 30.9675012,16.6720007 31.0359013,16.8544007 C31.0017012,16.2616007 30.9789012,15.6802007 30.9675012,15.0874007 C30.7395012,15.5320007 30.4887012,15.9652007 30.2265012,16.3870007 L30.7167012,16.2844007 Z M32.4723013,16.9684008 C32.6319013,16.9570008 32.7801013,16.9570008 32.9283013,16.9456008 C33.0651013,16.7062007 33.2019013,16.4782007 33.3273013,16.2274007 C33.0309013,15.9652007 32.7231013,15.7030007 32.4039013,15.4636007 C32.4153013,15.9652007 32.4381013,16.4782007 32.4723013,16.9684008 Z M30.0897012,16.6036007 C29.9985012,16.7518007 29.9073012,16.9000008 29.8161012,17.0368008 C29.9529012,17.0254008 30.0897012,17.0140008 30.2265012,16.9912008 C30.1923012,16.8658007 30.1467012,16.7290007 30.0897012,16.6036007 Z M28.8129012,19.8412009 L28.1745011,19.8526009 L28.0947011,19.7842009 L28.0947011,19.1800008 L27.8211011,19.4080009 L27.7299011,19.3966009 C27.6159011,19.1572008 27.4791011,18.8722008 27.3195011,18.5872008 L27.3195011,19.4764009 L27.3765011,22.691201 C27.7413011,22.394801 28.0833011,22.064201 28.3341011,21.6538009 C28.6533012,21.1066009 28.7901012,20.4682009 28.8129012,19.8412009 Z M34.4331014,16.3642007 C34.3305014,16.5238007 34.2279014,16.6834007 34.1367014,16.8316007 C34.2849014,16.8088007 34.4331014,16.7974007 34.5813014,16.7746007 C34.5357014,16.6378007 34.4901014,16.5010007 34.4331014,16.3642007 Z M37.3660516,15.3268007 L37.4344516,15.2356007 C37.7650516,15.2242007 38.0728516,15.2242007 38.3578516,15.2128007 C38.6884516,14.4376007 38.9506516,13.6282006 39.1672516,12.7960006 L39.2584516,12.7504006 L40.7746517,13.1380006 L40.8202517,13.2520006 C40.5580517,13.9018006 40.2730517,14.5174007 39.9652517,15.1330007 C40.3528517,15.1102007 40.7404517,15.0760007 41.1394517,15.0418007 C41.0140517,14.8138007 40.8772517,14.5972007 40.7176517,14.3464006 L40.7404517,14.2552006 L41.8348517,13.7650006 L41.9602517,13.7992006 C42.5074518,14.5516007 42.8494518,15.1330007 43.3054518,15.9652007 L43.3168518,15.4864007 L43.3168518,13.0696006 L43.3966518,12.9784006 L44.7874519,12.9784006 L44.8786519,13.0582006 L44.8786519,14.4946007 C45.6196519,14.1982006 46.2238519,13.8904006 46.8394519,13.4914006 L46.9534519,13.4800006 L47.819852,14.4262007 L47.819852,14.5516007 C46.8736519,15.0874007 45.8362519,15.5206007 44.8786519,15.8398007 L44.8786519,16.3186007 C44.8786519,16.6720007 44.8786519,16.6720007 45.6310519,16.6720007 C46.6684519,16.6720007 46.7596519,16.6036007 46.8280519,15.6232007 L48.082052,16.1020007 C48.196052,16.1476007 48.207452,16.1818007 48.196052,16.2958007 C48.150452,17.0254008 48.047852,17.3446008 47.740052,17.6296008 C47.409452,17.9374008 47.0218519,18.0742008 45.5284519,18.0742008 C43.6018518,18.0742008 43.2826518,17.9488008 43.2826518,16.6036007 L43.2940518,16.1704007 L42.0628518,16.7746007 L41.9602517,16.7404007 C41.8804517,16.5352007 41.7892517,16.3414007 41.7094517,16.1590007 C40.4098517,16.3756007 39.3496516,16.4896007 37.7992516,16.5922007 L37.7080516,16.5238007 L37.3660516,15.3268007 Z M41.1736517,21.3232009 L39.5662517,21.3232009 L39.5662517,23.569001 L38.0272516,23.569001 L38.0842516,20.8672009 L38.0842516,18.3364008 L38.0500516,16.9228008 L38.1298516,16.8430007 L39.5890517,16.8772008 L41.1508517,16.8772008 L42.6100518,16.8430007 L42.6898518,16.9228008 L42.6556518,18.3364008 L42.6556518,20.1490009 L42.7126518,22.201001 C42.7126518,23.295401 42.0742518,23.557601 40.8088517,23.557601 C40.6378517,23.557601 40.6150517,23.534801 40.5694517,23.432201 L40.0678517,22.189601 C40.4212517,22.189601 40.7518517,22.178201 40.9798517,22.155401 C41.1280517,22.144001 41.1736517,22.098401 41.1736517,21.916001 L41.1736517,21.3232009 Z M41.1736517,20.2288009 L41.1736517,19.6930009 L39.5662517,19.6930009 L39.5662517,20.2288009 L41.1736517,20.2288009 Z M41.1736517,18.5986008 L41.1736517,18.0400008 L39.5662517,18.0400008 L39.5662517,18.5986008 L41.1736517,18.5986008 Z M44.8786519,18.4048008 L44.8786519,19.6588009 C45.6196519,19.3510008 46.2238519,19.0432008 46.8394519,18.6670008 L46.9534519,18.6556008 L47.819852,19.6018009 L47.819852,19.7272009 C46.8736519,20.2630009 45.8362519,20.6962009 44.8786519,21.0154009 L44.8786519,21.6766009 C44.8786519,22.030001 44.8786519,22.030001 45.6310519,22.030001 C46.6684519,22.030001 46.7596519,21.961601 46.8280519,20.9242009 L48.082052,21.4030009 C48.196052,21.4486009 48.207452,21.4828009 48.196052,21.5968009 C48.150452,22.326401 48.047852,22.725401 47.740052,23.010401 C47.409452,23.318201 47.0218519,23.455001 45.5284519,23.455001 C43.6018518,23.455001 43.2826518,23.329601 43.2826518,21.984401 L43.3168518,20.8672009 L43.3168518,18.4162008 L43.3966518,18.3250008 L44.7874519,18.3250008 L44.8786519,18.4048008 Z M57.1506023,17.4814008 L57.1620023,17.3788008 L57.7548024,16.9570008 L57.8688024,16.9456008 C58.2906024,17.2990008 58.6896024,17.6980008 59.0316024,18.1540008 L59.0202024,18.2680008 L58.3932024,18.7126008 L58.2792024,18.7126008 C57.9258024,18.2452008 57.6066024,17.8690008 57.1506023,17.4814008 Z M58.2222024,16.7632007 L58.2336024,16.6606007 L58.8150024,16.2388007 L58.9290024,16.2274007 C59.3508024,16.5808007 59.7156024,16.9456008 60.0576025,17.4016008 L60.0462025,17.5156008 L59.4534024,17.9488008 L59.3394024,17.9488008 C58.9860024,17.4814008 58.6782024,17.1508008 58.2222024,16.7632007 Z M50.0484021,17.4016008 L49.9458021,17.3560008 L49.569602,15.8512007 L49.615202,15.7600007 C52.7958022,14.9848007 55.3380023,14.4604007 58.5528024,13.8790006 L58.6554024,13.9360006 L58.9860024,15.4522007 L58.9062024,15.5548007 C57.6408024,15.6460007 56.5350023,15.8740007 55.8396023,16.4440007 C54.7794023,17.2990008 54.1866022,18.3364008 54.1866022,19.4080009 C54.1866022,20.2858009 54.6198022,20.7418009 55.2924023,20.9470009 C55.9194023,21.1408009 56.8314023,21.2092009 58.0170024,21.1978009 L58.0968024,21.2776009 L58.0056024,23.010401 L57.9144024,23.078801 C56.4894023,23.101601 55.2468023,22.953401 54.3120022,22.554401 C53.1834022,22.075601 52.4766022,21.1180009 52.4766022,19.5676009 C52.4766022,18.1654008 53.2632022,16.9570008 54.0042022,16.3528007 C52.8870022,16.6264007 51.6672021,16.9456008 50.0484021,17.4016008 Z M63.1465526,20.2972009 L63.2605526,20.2858009 C64.1611527,20.9014009 64.9021527,21.5740009 65.6317527,22.531601 L65.6317527,22.622801 L64.4575527,23.683001 L64.3549527,23.683001 C63.6253527,22.668401 62.7703526,21.8134009 62.0407526,21.3118009 L62.0407526,21.2092009 L63.1465526,20.2972009 Z M75.3567031,19.3852008 L75.3339031,19.0090008 C75.8241031,18.9634008 76.0863031,18.9178008 76.2687031,18.8836008 C76.5081031,18.8380008 76.5879031,18.7810008 76.4739031,18.5530008 C76.2573031,18.1312008 75.9609031,17.6296008 75.6075031,17.0710008 C74.376303,17.3788008 73.042503,17.5384008 71.5605029,17.5840008 L71.4693029,17.5042008 L71.2071029,16.1362007 L71.2755029,16.0564007 C72.495303,15.9994007 73.612503,15.8740007 74.6613031,15.6346007 C74.250903,15.0646007 73.794903,14.4604007 73.293303,13.8448006 L73.316103,13.7422006 L74.7867031,13.1950006 L74.9007031,13.2064006 C75.3795031,13.8106006 75.8697031,14.4832007 76.3485031,15.1672007 C77.0325031,14.9278007 77.6823032,14.6428007 78.3093032,14.3008006 L78.4233032,14.3236006 L79.1187032,15.7144007 L79.0731032,15.8170007 C78.4803032,16.1020007 77.8875032,16.3528007 77.2833032,16.5694007 C77.7735032,17.3446008 78.2067032,18.0628008 78.5031032,18.6100008 C78.6399032,18.8608008 78.7083032,19.1116008 78.7083032,19.3852008 C78.7083032,19.8982009 78.1953032,20.1946009 77.7393032,20.1946009 C77.5227032,20.1946009 77.3403032,20.1262009 77.1465032,20.0122009 C76.7475031,19.7842009 76.4397031,19.6360009 75.3567031,19.3852008 Z M71.2527029,20.7532009 L71.2641029,20.6506009 L72.483903,19.8868009 L72.586503,19.9096009 C73.224903,21.0610009 74.7297031,21.3916009 76.2573031,21.3916009 C76.6563031,21.3916009 77.0439031,21.3688009 77.6253032,21.3232009 L77.6823032,21.4030009 L77.3061032,23.101601 L77.2035032,23.158601 C76.8159031,23.181401 76.5081031,23.181401 76.0521031,23.181401 C73.794903,23.181401 72.107703,22.349201 71.2527029,20.7532009 Z M84.0634534,14.5858007 L84.0292534,14.4946007 L84.7360534,13.2520006 L84.8500534,13.1950006 C85.7392535,13.4344006 86.5828535,13.7194006 87.6088536,14.2552006 L87.6316536,14.3692007 L86.8564535,15.7030007 L86.7424535,15.7258007 C85.8190535,15.2128007 85.0552534,14.8708007 84.0634534,14.5858007 Z M83.0602534,16.0108007 L83.1742534,15.9652007 L84.5992534,16.2388007 L84.6676534,16.3414007 C84.4396534,17.1736008 84.3142534,17.9146008 84.2116534,18.7696008 C85.0780535,17.8690008 86.2294535,17.3788008 87.4720535,17.3788008 C89.3758536,17.3788008 90.4132537,18.5644008 90.4132537,20.0008009 C90.4132537,22.223801 88.2586536,23.181401 85.0780535,23.352401 C84.8728534,23.352401 84.8044534,23.341001 84.7132534,23.204201 L83.7670534,21.8134009 C86.8222535,21.7222009 88.5208536,21.1180009 88.5208536,20.0236009 C88.5208536,19.3396008 88.2814536,18.8380008 87.3352535,18.8380008 C86.3092535,18.8380008 85.0438534,19.4080009 84.1204534,21.0268009 L84.0064534,21.0838009 L82.6156534,20.9584009 L82.5358533,20.8558009 C82.5130533,19.2826008 82.7182534,17.6410008 83.0602534,16.0108007 Z M97.0608039,15.1102007 L97.1292039,15.0190007 C97.5054039,15.0304007 97.870204,15.0418007 98.223604,15.0418007 C99.306604,15.0418007 100.298404,14.9620007 101.438404,14.7682007 L101.518204,14.8366007 L101.586604,16.2730007 L101.518204,16.3642007 C100.663204,16.5466007 99.466204,16.6492007 98.223604,16.6492007 C97.858804,16.6492007 97.5054039,16.6492007 97.1406039,16.6264007 L97.0608039,16.5238007 L97.0608039,15.1102007 Z M102.156604,22.201001 L102.099604,22.303601 C101.324404,22.417601 100.503604,22.486001 99.420604,22.486001 C97.1292039,22.486001 96.5250039,21.3346009 96.2514039,20.0692009 L96.3084039,19.9666009 L97.5282039,19.4080009 L97.6308039,19.4422009 C97.847404,20.5138009 98.292004,20.8558009 99.819604,20.8444009 C100.195804,20.8444009 101.164804,20.7646009 101.951404,20.6050009 L102.054004,20.6734009 L102.156604,22.201001 Z M93.7662038,13.9360006 L93.8574038,13.8676006 L95.4306039,14.0842006 L95.4990039,14.1754006 C95.4648039,14.8366007 95.3166039,15.4864007 94.9746038,16.6492007 C94.7124038,17.5954008 94.5528038,18.5416008 94.5528038,19.2940008 C94.5528038,19.8982009 94.5642038,20.1946009 94.6212038,20.4454009 C94.6554038,20.5936009 94.7694038,20.6050009 94.9404038,20.4340009 C95.1228038,20.2288009 95.3622039,19.9210009 95.5218039,19.6930009 L95.8524039,19.8640009 C95.5104039,20.8330009 95.3394039,21.5512009 95.3166039,22.269401 C95.3052039,22.782401 95.0544038,23.101601 94.5300038,23.113001 C94.0740038,23.124401 93.8004038,22.873601 93.5382038,22.417601 C93.2874038,21.995801 92.9682038,21.0724009 92.9682038,19.4308009 C92.9682038,18.4048008 93.2076038,17.0140008 93.4698038,15.9652007 C93.6408038,15.2128007 93.7548038,14.6086007 93.7662038,13.9360006 Z M113.755955,17.5156008 L113.755955,18.2338008 L113.790155,19.6474009 L113.687555,19.7272009 L112.205555,19.6930009 L111.111154,19.6930009 C111.054154,20.2402009 110.928754,20.7760009 110.700754,21.2662009 C111.738155,21.7108009 113.014955,21.973001 114.679355,22.087001 L113.869955,23.409401 C113.767355,23.580401 113.698955,23.614601 113.470955,23.580401 C112.171355,23.409401 110.974354,23.113001 109.868554,22.543001 C109.264354,23.147201 108.432154,23.523401 107.383354,23.774201 C107.326354,23.785601 107.280754,23.797001 107.246554,23.797001 C107.166754,23.797001 107.121154,23.762801 107.075554,23.694401 L106.380154,22.793801 L106.380154,23.740001 L104.784154,23.740001 L104.841154,20.2174009 L104.841154,19.0432008 C104.704354,19.3510008 104.601754,19.5334009 104.396554,19.8184009 C104.339554,19.8982009 104.282554,19.9324009 104.236954,19.9324009 C104.179954,19.9324009 104.145754,19.8868009 104.122954,19.8070009 L103.723954,18.2452008 C104.373754,17.0254008 105.114754,14.8936007 105.433954,12.8644006 L105.536554,12.8074006 L106.915954,13.1152006 L106.972954,13.2178006 C106.790554,14.0842006 106.596754,14.8708007 106.380154,15.5776007 L106.380154,22.520201 C107.132554,22.360601 107.953354,22.178201 108.568954,21.6880009 C108.169954,21.3574009 107.793754,20.9812009 107.428954,20.5480009 L107.428954,20.4226009 L108.443554,19.7500009 L108.568954,19.7500009 C108.819754,20.0236009 109.081954,20.2744009 109.378354,20.4910009 C109.469554,20.2402009 109.537954,19.9666009 109.572154,19.6930009 L108.876754,19.6930009 L107.246554,19.7272009 L107.166754,19.6474009 L107.200954,18.2908008 L107.200954,17.4586008 L107.166754,16.2388007 L107.246554,16.1704007 L108.933754,16.2046007 L109.663354,16.2046007 L109.663354,15.4750007 L108.682954,15.4750007 L106.927354,15.5092007 L106.847554,15.4408007 L106.847554,14.1982006 L106.915954,14.1298006 L108.682954,14.1640006 L109.663354,14.1640006 L109.663354,12.9328006 L109.743154,12.8530006 L111.156754,12.8530006 L111.236554,12.9328006 L111.236554,14.1640006 L112.627355,14.1640006 L114.360155,14.1298006 L114.428555,14.1868006 L114.428555,15.4522007 L114.360155,15.5092007 L112.627355,15.4750007 L111.236554,15.4750007 L111.236554,16.2046007 L112.091555,16.2046007 L113.698955,16.1704007 L113.790155,16.2616007 L113.755955,17.5156008 Z M112.216955,17.3674008 L111.213754,17.3674008 C111.213754,17.7436008 111.202354,18.1312008 111.190954,18.5074008 L112.216955,18.5074008 L112.216955,17.3674008 Z M108.671554,18.5074008 L109.674754,18.5074008 C109.686154,18.1312008 109.686154,17.7436008 109.686154,17.3674008 L108.671554,17.3674008 L108.671554,18.5074008 Z M116.292305,14.5174007 L116.372105,14.4490007 L117.979505,14.5060007 L118.059305,14.5858007 C117.956705,15.8512007 117.922505,16.9798008 117.922505,17.6410008 C117.922505,18.6442008 118.025105,19.3168008 118.184705,19.8982009 C118.310105,20.3428009 118.458305,20.6734009 118.709105,20.6734009 C119.016905,20.6734009 119.404505,20.0578009 119.666705,19.0090008 L120.806705,20.4454009 C120.886505,20.5480009 120.886505,20.6050009 120.840905,20.7304009 C120.384905,21.916001 119.643905,22.771001 118.720505,22.771001 C117.979505,22.771001 117.329705,22.246601 116.873705,21.3232009 C116.520305,20.6050009 116.212505,19.3282008 116.212505,17.7778008 C116.212505,16.8544007 116.235305,15.7600007 116.292305,14.5174007 Z M121.752905,16.5352007 L121.775705,16.4326007 L122.870105,15.5548007 L122.995505,15.5320007 C124.272305,16.3984007 125.355305,17.6866008 126.016505,19.2142008 L125.982305,19.3168008 L124.534505,20.2174009 L124.420505,20.1832009 C123.804905,18.6100008 122.938505,17.3674008 121.752905,16.5352007 Z M130.062455,14.4262007 L130.187855,14.4718007 C130.621055,15.1102007 131.020055,15.7600007 131.407655,16.4212007 C131.977655,16.1248007 132.547655,15.8284007 133.140455,15.5890007 C132.650255,15.0874007 132.080255,14.6200007 131.453255,14.2780006 L131.464655,14.1640006 L132.445055,13.1950006 L132.570455,13.1722006 C133.243055,13.5370006 133.790255,13.9246006 134.371655,14.4604007 L134.360255,14.5630007 L133.482455,15.4408007 C134.291855,15.0988007 134.987255,14.8822007 135.523055,14.8822007 C137.210256,14.8822007 138.224856,16.0792007 138.224856,17.4244008 C138.224856,19.3168008 136.628855,20.1376009 134.633855,20.1718009 C134.451455,20.1718009 134.383055,20.1604009 134.291855,20.0122009 L133.448255,18.6100008 C135.386255,18.6556008 136.412255,18.4048008 136.412255,17.3674008 C136.412255,16.8772008 136.058855,16.4668007 135.397655,16.4668007 C134.964455,16.4668007 134.337455,16.6720007 133.573655,17.0254008 C133.140455,17.2306008 132.650255,17.4814008 132.137255,17.7436008 C133.072055,19.4992009 133.835855,21.2434009 134.474255,22.885001 L134.428655,22.976201 L132.889655,23.557601 L132.787055,23.512001 C132.228455,21.8818009 131.510255,20.1946009 130.643855,18.5416008 C129.994055,18.8722008 129.367055,19.2484008 128.728655,19.5904009 L128.626055,19.5676009 L127.885055,18.2680008 L127.907855,18.1654008 C128.557655,17.8576008 129.241655,17.5042008 129.891455,17.1736008 C129.526655,16.5352007 129.127655,15.8968007 128.717255,15.2812007 L128.705855,15.1558007 L130.062455,14.4262007 Z M143.574006,23.523401 L142.274406,22.417601 C143.927406,22.075601 144.964806,21.3574009 145.261206,20.6506009 C145.113006,20.7988009 144.793806,20.9128009 144.166806,20.9128009 C143.118006,20.9128009 142.548006,20.3656009 142.548006,19.5562009 C142.548006,18.1996008 143.596806,16.9798008 144.600006,16.9798008 C144.953406,16.9798008 145.067406,17.0140008 145.170006,17.0368008 C145.170006,16.7860007 145.170006,16.5694007 145.158606,16.2958007 C143.699406,16.3756007 142.160406,16.5124007 140.553006,16.6948007 L140.461806,16.6264007 L140.347806,15.1900007 L140.427606,15.0874007 C142.012206,14.9734007 143.631006,14.8594007 145.158606,14.7796007 L145.158606,13.2406006 L145.227006,13.1608006 L146.800206,13.1608006 L146.891406,13.2520006 C146.880006,13.7764006 146.868606,14.2438006 146.857206,14.6770007 C147.997206,14.6314007 149.137206,14.5858007 150.220206,14.5744007 L150.311406,14.6542007 L150.311406,16.0792007 L150.220206,16.1590007 C149.091606,16.1590007 147.951606,16.1704007 146.845806,16.2160007 C146.845806,16.8430007 146.845806,17.5042008 146.880006,18.2794008 C147.028206,18.7126008 147.130806,19.2370008 147.130806,19.6702009 C147.130806,20.4112009 146.971206,20.9584009 146.652006,21.5398009 C146.093406,22.543001 145.113006,23.170001 144.030006,23.523401 C143.984406,23.534801 143.950206,23.546201 143.916006,23.557601 C143.859006,23.580401 143.802006,23.580401 143.756406,23.580401 C143.688006,23.580401 143.631006,23.557601 143.574006,23.523401 Z M145.215606,18.7696008 C145.135806,18.4504008 144.953406,18.3250008 144.725406,18.3250008 C144.406206,18.3250008 144.030006,18.8152008 144.030006,19.1686008 C144.030006,19.3852008 144.098406,19.4878009 144.394806,19.4878009 C144.862206,19.4878009 145.192806,19.2940008 145.215606,18.7696008 Z M158.949756,23.261201 L158.847156,23.272601 C157.091556,21.927401 155.415756,20.8900009 153.238356,19.7614009 C152.770956,19.5220009 152.474556,19.1686008 152.474556,18.6442008 C152.474556,18.1768008 152.725356,17.8234008 153.112956,17.4472008 C154.412556,16.1818007 156.133956,14.8024007 157.878156,13.4458006 L158.003556,13.4458006 L159.189156,14.7568007 L159.189156,14.8708007 C157.581756,15.9652007 155.860356,17.1850008 154.754556,18.1540008 C154.640556,18.2452008 154.572156,18.3706008 154.583556,18.4504008 C154.594956,18.5302008 154.674756,18.6100008 154.777356,18.6556008 C156.247956,19.3282008 158.311356,20.5138009 160.066956,21.7336009 L160.078356,21.8476009 L158.949756,23.261201 Z M166.487707,13.7194006 L166.487707,19.8184009 L164.697907,19.8184009 L164.697907,13.7194006 L166.487707,13.7194006 Z M165.598507,20.7418009 C166.191307,20.7418009 166.692907,21.2434009 166.692907,21.8476009 C166.692907,22.451801 166.191307,22.942001 165.598507,22.942001 C164.994307,22.942001 164.492707,22.451801 164.492707,21.8476009 C164.492707,21.2434009 164.994307,20.7418009 165.598507,20.7418009 Z" id="通知機能で、さらに使いやすく！" fill="#FDEA37" fill-rule="nonzero"></path>
                            <circle id="Oval" fill="#F8E71C" cx="75.600003" cy="8.40000033" r="1.20000005"></circle>
                            <circle id="Oval-Copy" fill="#F8E71C" cx="85.8000034" cy="8.40000033" r="1.20000005"></circle>
                            <circle id="Oval-Copy-2" fill="#F8E71C" cx="98.4000039" cy="8.40000033" r="1.20000005"></circle>
                        </g>
                    </g>
                </g>
            </g>
        </g>
    </g>
</svg>